HIERARCHY
ROOT Hips
{
	OFFSET 0.00000 0.00000 0.00000
	CHANNELS 6 Xposition Yposition Zposition Zrotation Yrotation Xrotation 
	JOINT LHipJoint
	{
		OFFSET 0 0 0
		CHANNELS 3 Zrotation Yrotation Xrotation
		JOINT LeftUpLeg
		{
			OFFSET 1.59801 -1.77853 0.57028
			CHANNELS 3 Zrotation Yrotation Xrotation
			JOINT LeftLeg
			{
				OFFSET 2.39439 -6.57854 0.00000
				CHANNELS 3 Zrotation Yrotation Xrotation
				JOINT LeftFoot
				{
					OFFSET 2.69334 -7.39989 0.00000
					CHANNELS 3 Zrotation Yrotation Xrotation
					JOINT LeftToeBase
					{
						OFFSET 0.09553 -0.26245 1.73747
						CHANNELS 3 Zrotation Yrotation Xrotation
						End Site
						{
							OFFSET 0.00000 -0.00000 0.89391
						}
					}
				}
			}
		}
	}
	JOINT RHipJoint
	{
		OFFSET 0 0 0
		CHANNELS 3 Zrotation Yrotation Xrotation
		JOINT RightUpLeg
		{
			OFFSET -1.54704 -1.77852 0.57028
			CHANNELS 3 Zrotation Yrotation Xrotation
			JOINT RightLeg
			{
				OFFSET -2.40286 -6.60180 0.00000
				CHANNELS 3 Zrotation Yrotation Xrotation
				JOINT RightFoot
				{
					OFFSET -2.63873 -7.24984 0.00000
					CHANNELS 3 Zrotation Yrotation Xrotation
					JOINT RightToeBase
					{
						OFFSET -0.15631 -0.42945 1.84436
						CHANNELS 3 Zrotation Yrotation Xrotation
						End Site
						{
							OFFSET -0.00000 -0.00000 0.95734
						}
					}
				}
			}
		}
	}
	JOINT LowerBack
	{
		OFFSET 0 0 0
		CHANNELS 3 Zrotation Yrotation Xrotation
		JOINT Spine
		{
			OFFSET -0.00436 1.89866 -0.04018
			CHANNELS 3 Zrotation Yrotation Xrotation
			JOINT Spine1
			{
				OFFSET 0.02031 1.88273 0.09634
				CHANNELS 3 Zrotation Yrotation Xrotation
				JOINT Neck
				{
					OFFSET 0 0 0
					CHANNELS 3 Zrotation Yrotation Xrotation
					JOINT Neck1
					{
						OFFSET -0.13105 1.89371 0.23083
						CHANNELS 3 Zrotation Yrotation Xrotation
						JOINT Head
						{
							OFFSET 0.17062 1.83990 -0.54062
							CHANNELS 3 Zrotation Yrotation Xrotation
							End Site
							{
								OFFSET 0.04576 1.94782 -0.21839
							}
						}
					}
				}
				JOINT LeftShoulder
				{
					OFFSET 0 0 0
					CHANNELS 3 Zrotation Yrotation Xrotation
					JOINT LeftArm
					{
						OFFSET 3.12424 1.09204 0.22226
						CHANNELS 3 Zrotation Yrotation Xrotation
						JOINT LeftForeArm
						{
							OFFSET 5.29277 -0.00000 0.00000
							CHANNELS 3 Zrotation Yrotation Xrotation
							JOINT LeftHand
							{
								OFFSET 2.85226 -0.00000 0.00000
								CHANNELS 3 Zrotation Yrotation Xrotation
								JOINT LeftFingerBase
								{
									OFFSET 0 0 0
									CHANNELS 3 Zrotation Yrotation Xrotation
									JOINT LeftHandIndex1
									{
										OFFSET 0.60210 -0.00000 0.00000
										CHANNELS 3 Zrotation Yrotation Xrotation
										End Site
										{
											OFFSET 0.48543 -0.00000 0.00000
										}
									}
								}
								JOINT LThumb
								{
									OFFSET 0 0 0
									CHANNELS 3 Zrotation Yrotation Xrotation
									End Site
									{
										OFFSET 0.49284 -0.00000 0.49284
									}
								}
							}
						}
					}
				}
				JOINT RightShoulder
				{
					OFFSET 0 0 0
					CHANNELS 3 Zrotation Yrotation Xrotation
					JOINT RightArm
					{
						OFFSET -2.91709 1.01504 0.30199
						CHANNELS 3 Zrotation Yrotation Xrotation
						JOINT RightForeArm
						{
							OFFSET -5.13304 -0.00000 0.00000
							CHANNELS 3 Zrotation Yrotation Xrotation
							JOINT RightHand
							{
								OFFSET -2.74305 -0.00000 0.00000
								CHANNELS 3 Zrotation Yrotation Xrotation
								JOINT RightFingerBase
								{
									OFFSET 0 0 0
									CHANNELS 3 Zrotation Yrotation Xrotation
									JOINT RightHandIndex1
									{
										OFFSET -0.76798 -0.00000 0.00000
										CHANNELS 3 Zrotation Yrotation Xrotation
										End Site
										{
											OFFSET -0.61916 -0.00000 0.00000
										}
									}
								}
								JOINT RThumb
								{
									OFFSET 0 0 0
									CHANNELS 3 Zrotation Yrotation Xrotation
									End Site
									{
										OFFSET -0.62862 -0.00000 0.62862
									}
								}
							}
						}
					}
				}
			}
		}
	}
}
MOTION
Frames: 12
Frame Time: .0083333
0.0450 17.4886 -1.3815 -2.0594 4.2633 3.5511 0.0000 0.0000 0.0000 -16.0208 -21.7077 -3.7870 0.9311 6.1467 17.2106 0.3049 5.7001 -14.0785 1.3015 -7.2274 -20.3909 0.0000 0.0000 0.0000 21.0101 8.3144 3.8152 0.0000 -0.0000 0.0000 0.3990 -11.5512 -7.6338 -0.2843 3.4294 -9.4767 -0.8899 -0.5181 1.9568 0.3984 -0.7089 -1.1747 0.9350 -0.3367 -2.2854 -14.7395 -11.6061 -11.7943 18.4284 -17.5068 18.8558 6.4415 -7.5299 11.0942 0.0000 0.0000 0.0000 -87.2874 -7.4060 15.3270 7.6117 -12.9216 -0.8632 -0.0000 -0.0000 19.0407 10.4648 23.5003 4.2123 -7.1250 0.0000 -0.0000 -19.2549 52.7933 -3.8057 0.0000 0.0000 0.0000 85.9451 -4.6014 14.3975 -15.3482 24.6289 -3.3697 0.0000 0.0000 14.1444 -14.3900 10.8415 -2.7629 7.1250 -0.0000 -0.0000 8.9424 -18.8698 5.6385
0.0447 17.4871 -1.3758 -2.1425 4.2312 3.5015 0.0000 0.0000 0.0000 -15.9512 -21.7044 -3.7692 0.9442 6.1888 17.3333 0.3052 5.8394 -14.2071 1.3521 -7.3609 -20.7891 0.0000 0.0000 0.0000 21.1801 8.5765 3.1570 -0.0062 -0.5078 1.3955 0.3639 -11.3378 -8.4211 -0.2688 3.3349 -9.2126 -0.9228 -0.5080 1.9024 0.4677 -0.6943 -1.1001 1.0229 -0.3294 -2.1774 -14.8261 -11.6147 -11.8326 18.4143 -17.4892 18.8407 6.4513 -7.5272 11.0997 0.0000 0.0000 0.0000 -87.6444 -7.1828 14.8829 7.7306 -13.1153 -0.8900 -0.0000 -0.0000 19.6998 9.9758 22.5270 3.8552 -7.1250 0.0000 -0.0000 -19.2315 51.7890 -3.3171 0.0000 0.0000 0.0000 86.1238 -4.5579 15.0240 -15.3901 24.6867 -3.3872 0.0000 0.0000 14.2094 -14.1759 11.0884 -2.7812 7.1250 -0.0000 -0.0000 9.0877 -18.6317 5.7811
0.0448 17.4851 -1.3724 -2.1803 4.2829 3.5101 0.0000 0.0000 0.0000 -15.8773 -21.6011 -3.9099 0.9577 6.2314 17.4573 0.3195 5.6615 -14.2574 1.3300 -7.3031 -20.6166 0.0000 0.0000 0.0000 21.2541 8.6464 2.7911 -0.0136 -0.7533 2.0703 0.3399 -11.1750 -8.8229 -0.2585 3.2714 -9.0352 -0.9650 -0.5470 1.8765 0.5073 -0.7467 -1.1126 1.0889 -0.3546 -2.1733 -14.8844 -11.5850 -11.8373 18.3390 -17.4319 18.9469 6.4469 -7.5089 11.1249 -0.0000 0.0000 0.0000 -87.9371 -6.6071 17.4888 8.1879 -13.8570 -0.9966 -0.0000 -0.0000 17.5692 9.9482 22.6520 3.8645 -7.1250 0.0000 -0.0000 -19.3197 51.9026 -3.3883 -0.0000 0.0000 0.0000 86.3770 -4.5638 15.4456 -15.4358 24.7496 -3.4063 0.0000 0.0000 14.9373 -13.6391 11.1177 -2.6788 7.1250 -0.0000 -0.0000 9.4633 -18.6339 6.0261
0.0452 17.4828 -1.3686 -2.1283 4.3039 3.4959 0.0000 0.0000 0.0000 -15.9327 -21.5211 -3.9774 0.9692 6.2678 17.5635 0.3309 5.4449 -14.2343 1.2428 -7.0687 -19.9190 0.0000 0.0000 0.0000 21.2275 8.7194 2.4887 -0.0231 -0.9814 2.6977 0.3232 -11.0905 -9.1619 -0.2739 3.3665 -9.3008 -1.1269 -0.5834 1.8773 0.5278 -0.7993 -1.1115 1.2026 -0.3784 -2.1690 -14.9416 -11.5385 -11.8455 18.3074 -17.3574 19.0302 6.4617 -7.4794 11.1442 -0.0000 -0.0000 0.0000 -88.2760 -5.8181 19.7089 8.9022 -15.0044 -1.1747 -0.0000 -0.0000 15.9439 9.9061 23.0209 3.9070 -7.1250 0.0000 -0.0000 -19.5461 52.2441 -3.5981 -0.0000 -0.0000 0.0000 86.6147 -4.5883 15.9186 -15.4599 24.7829 -3.4164 0.0000 0.0000 15.6670 -13.0847 11.0901 -2.5598 7.1250 -0.0000 -0.0000 9.8523 -18.6937 6.2680
0.0459 17.4808 -1.3632 -2.1196 4.3225 3.4653 0.0000 0.0000 0.0000 -15.9625 -21.4934 -3.9854 0.9796 6.3003 17.6581 0.3398 5.3013 -14.2412 1.2026 -6.9576 -19.5899 0.0000 0.0000 0.0000 21.2506 8.7910 2.2054 -0.0351 -1.2089 3.3238 0.3070 -11.0125 -9.4804 -0.2973 3.5061 -9.6912 -1.2422 -0.5724 1.9165 0.5569 -0.7878 -1.1189 1.2973 -0.3704 -2.1970 -15.0145 -11.5220 -11.9019 18.2934 -17.3288 19.1501 6.4757 -7.4662 11.1995 0.0000 -0.0000 0.0000 -88.5241 -5.1304 22.1244 9.4638 -15.8964 -1.3243 -0.0000 -0.0000 14.3415 9.7197 23.2605 3.8698 -7.1250 0.0000 -0.0000 -19.8480 52.4382 -3.7540 0.0000 -0.0000 0.0000 86.8596 -4.6268 16.2396 -15.4150 24.7211 -3.3976 0.0000 0.0000 16.3705 -12.8921 11.2817 -2.5639 7.1250 -0.0000 -0.0000 9.9818 -18.5114 6.3939
0.0475 17.4788 -1.3565 -2.0795 4.3976 3.4425 0.0000 0.0000 0.0000 -16.0336 -21.4751 -3.9952 0.9882 6.3271 17.7365 0.3427 5.3161 -14.2952 1.2873 -7.1895 -20.2781 0.0000 0.0000 0.0000 21.2303 8.7903 1.9518 -0.0473 -1.4030 3.8583 0.2900 -10.9201 -9.7681 -0.2928 3.4795 -9.6167 -1.2897 -0.5295 1.9250 0.4952 -0.7333 -1.1076 1.2585 -0.3431 -2.1921 -14.9262 -11.5531 -11.9025 18.2491 -17.3930 19.2168 6.4337 -7.4907 11.2229 0.0000 0.0000 0.0000 -88.5321 -4.6581 25.3805 9.7896 -16.4098 -1.4149 -0.0000 -0.0000 12.2039 9.8800 23.6250 3.9926 -7.1250 0.0000 -0.0000 -19.8846 52.8090 -3.9460 0.0000 0.0000 0.0000 87.2977 -4.6578 16.3516 -15.3603 24.6457 -3.3748 0.0000 0.0000 16.9531 -12.8836 11.5926 -2.6317 7.1250 -0.0000 -0.0000 9.9794 -18.1987 6.4624
0.0507 17.4768 -1.3510 -2.0836 4.4187 3.4049 0.0000 0.0000 0.0000 -16.0626 -21.4224 -4.0160 0.9997 6.3627 17.8406 0.3441 5.3855 -14.3728 1.4135 -7.5195 -21.2638 0.0000 0.0000 0.0000 21.2393 8.7974 1.8446 -0.0549 -1.5121 4.1590 0.2821 -10.8677 -9.8732 -0.2818 3.4143 -9.4345 -1.3123 -0.5148 1.9940 0.4792 -0.7155 -1.1175 1.2550 -0.3335 -2.2416 -14.8323 -11.5608 -11.9505 18.0955 -17.4002 19.3478 6.3602 -7.4942 11.2542 0.0000 0.0000 0.0000 -88.6343 -4.1482 28.0920 10.1260 -16.9364 -1.5114 -0.0000 -0.0000 10.6119 9.8916 24.0037 4.0575 -7.1250 0.0000 -0.0000 -20.0757 53.1672 -4.1663 0.0000 0.0000 0.0000 87.6572 -4.7328 16.7929 -15.3148 24.5829 -3.3558 0.0000 0.0000 17.2454 -12.3598 11.4375 -2.4881 7.1250 -0.0000 -0.0000 10.3488 -18.3849 6.6661
0.0538 17.4748 -1.3455 -2.1254 4.3982 3.3569 0.0000 0.0000 0.0000 -16.0474 -21.4075 -4.0070 1.0113 6.3985 17.9450 0.3518 5.3631 -14.4636 1.4193 -7.5342 -21.3080 0.0000 0.0000 0.0000 21.2921 8.8344 1.7849 -0.0614 -1.5986 4.3975 0.2757 -10.8383 -9.9867 -0.2853 3.4352 -9.4928 -1.2904 -0.4978 1.9900 0.4933 -0.6918 -1.0794 1.2560 -0.3225 -2.2011 -14.8941 -11.5536 -11.9905 18.0903 -17.3799 19.4045 6.3725 -7.4860 11.2847 -0.0000 0.0000 0.0000 -88.9311 -3.7666 29.7260 10.3754 -17.3246 -1.5849 -0.0000 -0.0000 10.0004 10.0306 24.1077 4.1322 -7.1250 0.0000 -0.0000 -19.9975 53.2897 -4.2102 -0.0000 0.0000 0.0000 87.9887 -4.7774 17.2772 -15.2761 24.5293 -3.3397 0.0000 0.0000 17.6512 -11.9300 11.2039 -2.3508 7.1250 -0.0000 -0.0000 10.6562 -18.6430 6.8091
0.0555 17.4729 -1.3402 -2.1710 4.3990 3.3071 0.0000 0.0000 0.0000 -16.0192 -21.3612 -4.0212 1.0247 6.4395 18.0651 0.3646 5.2652 -14.5622 1.3860 -7.4490 -21.0527 0.0000 0.0000 0.0000 21.3474 8.8256 1.7920 -0.0643 -1.6355 4.4993 0.2729 -10.8238 -10.0333 -0.2786 3.3946 -9.3793 -1.3381 -0.4700 1.9754 0.5310 -0.6549 -1.0207 1.3194 -0.3040 -2.1328 -14.9350 -11.5709 -12.0029 18.0902 -17.3872 19.3664 6.3757 -7.4923 11.2786 -0.0000 0.0000 0.0000 -89.3327 -3.5649 30.6519 10.4479 -17.4372 -1.6066 -0.0000 -0.0000 10.1602 9.8357 23.7430 3.9931 -7.1250 0.0000 -0.0000 -19.9899 52.9122 -4.0199 -0.0000 0.0000 0.0000 88.2658 -4.7518 17.7829 -15.1806 24.3971 -3.3002 0.0000 0.0000 17.9806 -11.8504 11.2944 -2.3532 7.1250 -0.0000 -0.0000 10.7085 -18.5565 6.8647
0.0565 17.4704 -1.3356 -2.1690 4.4498 3.2440 0.0000 0.0000 0.0000 -16.0449 -21.3172 -4.0260 1.0387 6.4820 18.1894 0.3719 5.0976 -14.5275 1.3670 -7.3999 -20.9057 0.0000 0.0000 0.0000 21.3602 8.7524 1.8228 -0.0661 -1.6594 4.5652 0.2734 -10.8390 -10.0564 -0.3311 3.6984 -10.2296 -1.4343 -0.4393 2.0295 0.5398 -0.6172 -1.0007 1.3815 -0.2838 -2.1428 -14.9778 -11.5807 -11.8749 18.1298 -17.3996 19.2644 6.3976 -7.5079 11.2270 0.0000 0.0000 0.0000 -89.6786 -3.2688 31.7698 10.5695 -17.6253 -1.6432 -0.0000 -0.0000 10.3000 9.6984 23.9088 3.9622 -7.1250 0.0000 -0.0000 -20.2114 53.0440 -4.1341 0.0000 0.0000 0.0000 88.5973 -4.8315 18.1649 -15.0923 24.2746 -3.2638 0.0000 0.0000 18.5352 -11.9666 11.4822 -2.4159 7.1250 -0.0000 -0.0000 10.6213 -18.3620 6.8533
0.0596 17.4673 -1.3278 -2.2643 4.4278 3.1651 0.0000 0.0000 0.0000 -15.9834 -21.2501 -4.0204 1.0546 6.5299 18.3300 0.3715 5.0140 -14.4554 1.3744 -7.4191 -20.9630 0.0000 0.0000 0.0000 21.4718 8.7526 1.8794 -0.0693 -1.6978 4.6712 0.2690 -10.8217 -10.1390 -0.3563 3.8349 -10.6126 -1.3823 -0.4160 2.0525 0.5635 -0.5843 -0.9775 1.3754 -0.2682 -2.1333 -15.0375 -11.5731 -11.8369 18.1513 -17.3977 19.3268 6.4200 -7.5101 11.2508 0.0000 0.0000 0.0000 -90.0411 -2.9221 32.7262 10.7001 -17.8272 -1.6830 -0.0000 -0.0000 10.7378 9.4888 24.5717 3.9758 -7.1250 0.0000 -0.0000 -20.7793 53.6274 -4.5615 0.0000 0.0000 0.0000 88.9045 -4.8845 18.6210 -14.9339 24.0539 -3.1989 0.0000 0.0000 19.2175 -12.0598 11.7088 -2.4826 7.1250 -0.0000 -0.0000 10.5494 -18.1297 6.8604
0.0642 17.4656 -1.3207 -2.2725 4.3849 3.1118 0.0000 0.0000 0.0000 -16.0149 -21.1676 -4.0422 1.0715 6.5802 18.4776 0.3678 5.1148 -14.4850 1.5620 -7.8870 -22.3715 0.0000 0.0000 0.0000 21.4777 8.7879 1.8831 -0.0739 -1.7536 4.8251 0.2631 -10.7960 -10.2433 -0.3449 3.7739 -10.4413 -1.4002 -0.3867 2.0756 0.5871 -0.5454 -0.9439 1.4082 -0.2487 -2.1127 -15.1246 -11.6137 -11.8603 18.0912 -17.4223 19.3460 6.4054 -7.5308 11.2689 -0.0000 -0.0000 0.0000 -90.4206 -2.6219 33.7925 10.7771 -17.9458 -1.7066 -0.0000 -0.0000 11.1845 9.2694 25.2447 3.9817 -7.1250 0.0000 -0.0000 -21.3794 54.2143 -5.0162 -0.0000 -0.0000 0.0000 89.1002 -4.8448 19.2714 -14.7032 23.7310 -3.1055 0.0000 0.0000 19.6234 -12.1852 11.8759 -2.5445 7.1250 -0.0000 -0.0000 10.4573 -17.9548 6.8395
